<svg xmlns="http://www.w3.org/2000/svg" viewBox="0 0 271 271"><defs><style>.cls-1{fill:#fff;}.cls-2{fill:#63c1a0;}.cls-3{fill:#ecb32d;}.cls-4{fill:#0b3c5d;}.cls-5{fill:#e10e49;}.cls-6{fill:#99d3df;}.cls-7{fill:#5f0f4e;}.cls-8{fill:none;stroke:#fff;stroke-miterlimit:10;stroke-width:10px;}</style></defs><title>Asset 10</title><g id="Layer_2" data-name="Layer 2"><g id="Layer_1-2" data-name="Layer 1"><rect class="cls-1" width="271" height="271"/><path class="cls-2" d="M135,135.67,62.65,77.24a93,93,0,0,1,110-26.59Z"/><path class="cls-3" d="M135,135.67,220,98a93,93,0,0,1-20.26,104.43Z"/><path class="cls-4" d="M135,135.67,50.61,174.76A93,93,0,0,1,69.13,70Z"/><path class="cls-5" d="M135,135.67l65.76,65.76A93,93,0,0,1,135,228.67h-.8Z"/><path class="cls-6" d="M135,135.67v93A93,93,0,0,1,49.4,172Z"/><path class="cls-7" d="M166.93,122l71.46-30.66a112.5,112.5,0,0,0-58-58.59L149,103.8A35.12,35.12,0,0,1,166.93,122Z"/><line class="cls-8" x1="135" y1="136" x2="189" y2="14"/><line class="cls-8" x1="135" y1="136" x2="255" y2="82"/><circle id="inner_ring" data-name="inner ring" class="cls-1" cx="134.75" cy="135.75" r="25"/><path class="cls-6" d="M131.93,189.69s-2.45,51-65.09,61.15c0,0,26.76-35.22,2.11-55.15Z"/></g></g></svg>